<?xml version="1.0" standalone="no"?><!DOCTYPE svg PUBLIC "-//W3C//DTD SVG 1.1//EN" "http://www.w3.org/Graphics/SVG/1.1/DTD/svg11.dtd"><svg t="1567223674201" class="icon" viewBox="0 0 1024 1024" version="1.1" xmlns="http://www.w3.org/2000/svg" p-id="1117" xmlns:xlink="http://www.w3.org/1999/xlink" width="200" height="200"><defs><style type="text/css"></style></defs><path d="M851.323818 455.572888l-558.371867-0.964329c-0.226091-75.316724-11.500185-198.065445 43.807457-262.892907 37.808172-44.31862 75.808621-88.630555 175.263052-87.638702 95.109546-2.511973 181.487838 78.328064 219.084861 175.260693 10.959532 27.959044 20.599869 43.022035 43.827313 43.824168 58.250761 1.764495 54.70211-59.677102 43.812372-87.638702C764.428465 95.578471 662.53323 16.442769 512.022656 16.442769c-102.293746 0-158.659691 20.996021-219.070706 87.63418-92.431838 101.836255-87.870102 266.492281-87.633787 350.53161l-32.58271 0.964329c-30.456469 0-55.056582 24.359277-55.056582 54.316378l0 459.958635c0 30.127162 24.644938 54.426868 55.056582 54.426868l678.529384 0c30.412037 0 55.05206-24.309733 55.05206-54.426868L906.316897 509.889266C906.370963 479.880655 881.736051 455.572888 851.323818 455.572888L851.323818 455.572888 851.323818 455.572888zM820.085073 892.469617c0 12.120461-4.22201 22.508867-12.868529 31.031527-8.56198 8.571811-18.915981 12.863614-31.026612 12.863614L249.386313 936.364758c-12.12577 0-22.469546-4.232823-30.98336-12.863614-8.572204-8.577709-12.917679-18.911065-12.917679-31.031527L205.485275 585.1592c0-24.172113 19.659526-43.842058 43.900842-43.842058l526.788874 0c24.236008 0 43.909689 19.664048 43.909689 43.842058L820.08468 892.469617 820.085073 892.469617z" p-id="1118"></path></svg>