<?xml version="1.0" standalone="no"?><!DOCTYPE svg PUBLIC "-//W3C//DTD SVG 1.1//EN" "http://www.w3.org/Graphics/SVG/1.1/DTD/svg11.dtd"><svg t="1570347890537" class="icon" viewBox="0 0 1024 1024" version="1.1" xmlns="http://www.w3.org/2000/svg" p-id="2344" xmlns:xlink="http://www.w3.org/1999/xlink" width="200" height="200"><defs><style type="text/css"></style></defs><path d="M471.4 110.2l-15.3-6-149.2-39.8c-28.4-7.4-46.5 2.9-54 30.9L75.2 833.6c-7.5 28.8 2.8 46.9 31.2 54.7L255.6 928c28.8 7.8 47-2.9 54.4-31.6l177.7-737.9c6.1-22.7 0.7-38.7-16.3-48.3zM398.9 367c-1.8 6.7-5.3 12.5-10.6 17-4.9 3.9-9.9 5-14.5 3.9H372.6l-135.3-36.6c-5.3-1.4-8.9-4.9-11-11-1.3-3-2-6.2-2.1-9.5-0.2-3.3 0.1-6.6 1-10.1 1.8-7 5.3-12.4 10.7-16.3 4.6-4.6 10-6 15.3-4.6l135.3 36.6h0.7c0.9 0.3 1.6 1.1 2.4 1.6 3.4 2 6.3 4.9 8.3 9.8 1.3 2.8 2 5.9 2.1 9.1 0.1 3.2-0.2 6.6-1.1 10.1z m22.8-89.2c-0.2 1.9-0.2 3.8-0.8 5.8-1.2 4.9-3.8 8.9-6.9 12.4-1.2 1.3-2.2 2.9-3.7 4-1.4 1.3-2.9 1.9-4.4 2.7-3.3 1.8-6.6 2.7-9.8 1.9h-0.7L260 268.3c-5.3-1.7-9.3-5.7-11.8-11.7-1.7-4.3-1.9-8.9-1.4-13.6 0.2-1.9 0.2-3.7 0.7-5.6 0.6-2 1.6-3.6 2.5-5.4 2.1-4.5 4.7-8.5 8.2-11.3 5-4.2 10.3-5.7 15.6-3.9L409.2 253h0.7c3.1 1.2 5.4 3.5 7.4 6.3 1.1 1.5 2.2 2.9 3 4.7 1.3 3 2 6.1 2.1 9.4 0 1.4-0.5 2.9-0.7 4.4zM674 136.7c-2.9 6.7-4.3 14.5-4.3 23.5v765.7c0 9.2 1.4 17.1 4.3 23.5 3.2 6.3 7.1 9.5 11.7 9.5 4.7 0 8.2-3.2 11.4-9.5 3.2-6.4 4.9-14.2 4.9-23.5V160.2c0-8.9-1.7-16.7-4.9-23.5-3.2-6.4-6.7-9.6-11.4-9.6-4.6 0-8.6 3.2-11.7 9.6z m-19.6 23.5c0-8.9-1.4-16.7-4.3-23.5-3.5-6.4-7.5-9.6-12.1-9.6s-8.1 3.2-11.4 9.6c-3.2 6.8-4.9 14.6-4.9 23.5v765.7c0 9.2 1.8 17.1 4.9 23.4 3.3 6.4 6.8 9.6 11.4 9.6 4.6 0 8.6-3.2 12.1-9.6 2.9-6.4 4.3-14.2 4.3-23.4V160.2zM864 136.7c-2.9 6.7-4.2 14.5-4.2 23.5v765.7c0 9.2 1.4 17.1 4.2 23.5 3.2 6.3 7.1 9.5 11.7 9.5 4.7 0 8.3-3.2 11.4-9.5 3.2-6.4 4.9-14.2 4.9-23.5V160.2c0-8.9-1.7-16.7-4.9-23.5-3.2-6.4-6.7-9.6-11.4-9.6-4.6 0-8.5 3.2-11.7 9.6z m-19.6 23.5c0-8.9-1.4-16.7-4.3-23.5-3.5-6.4-7.5-9.6-12.1-9.6s-8.1 3.2-11.4 9.6c-3.2 6.8-4.9 14.6-4.9 23.5v765.7c0 9.2 1.8 17.1 4.9 23.4 3.3 6.4 6.8 9.6 11.4 9.6 4.6 0 8.5-3.2 12.1-9.6 2.9-6.4 4.3-14.2 4.3-23.4V160.2zM584.1 131c-6.8-6.4-14.5-9.6-23.5-9.6-9.2 0-17 3.2-23.7 9.6-6.4 6.4-9.6 14.2-9.6 23.5v771c0 9.2 3.2 17 9.6 23.4 6.7 6.7 14.5 9.9 23.7 9.9 8.9 0 16.7-3.2 23.5-9.9 6.4-6.4 9.6-14.2 9.6-23.4v-771c0-9.2-3.2-17.1-9.6-23.5z m149.9 0c-6.4 6.4-9.6 14.2-9.6 23.5v771c0 9.2 3.2 17 9.6 23.4 6.7 6.7 14.5 9.9 23.5 9.9 9.3 0 17-3.2 23.8-9.9 6.4-6.4 9.6-14.2 9.6-23.4v-771c0-9.2-3.2-17-9.6-23.5-6.8-6.4-14.5-9.6-23.8-9.6-9 0-16.8 3.3-23.5 9.6z" p-id="2345"></path></svg>