<?xml version="1.0" standalone="no"?><!DOCTYPE svg PUBLIC "-//W3C//DTD SVG 1.1//EN" "http://www.w3.org/Graphics/SVG/1.1/DTD/svg11.dtd"><svg t="1567241358862" class="icon" viewBox="0 0 1024 1024" version="1.1" xmlns="http://www.w3.org/2000/svg" p-id="1854" xmlns:xlink="http://www.w3.org/1999/xlink" width="200" height="200"><defs><style type="text/css"></style></defs><path d="M963.714684 511.984815c0 247.002758-204.727111 451.729869-451.729869 451.729869S60.254946 758.987573 60.254946 511.984815 265.042797 60.254946 511.984815 60.254946c144.563277 0 277.130231 72.251268 361.377821 180.673725 30.097102 42.184536 84.369072 12.057063 54.27197-30.127473C831.269211 84.338702 680.631847 0 511.984815 0 228.932349 0 0 228.932349 0 511.984815c0 283.143577 228.932349 511.984815 511.984815 511.984815 283.143577 0 511.984815-228.841237 511.984815-511.984815 0.03037-54.211229-60.254946-48.167512-60.254946 0zM542.142658 240.959041h-60.254946c-48.167512 0-120.479521 72.281638-120.47952 120.479521v60.254946c-36.110449 0-60.194205 24.083756-60.194205 60.224575v240.928671c0 36.20156 24.083756 60.254946 60.194205 60.254945h301.213987c36.140819 0 60.194205-24.083756 60.194204-60.254945v-240.928671c0-36.110449-24.053386-60.224575-60.194204-60.224575V361.408192c-0.03037-48.197882-72.342379-120.44915-120.479521-120.449151z m-120.479521 120.41878c0-36.110449 24.083756-60.194205 60.224575-60.194204h60.254946c36.110449 0 60.254946 24.083756 60.254946 60.194204v60.254946h-180.734467v-60.254946z m240.928671 361.408192h-301.213987v-240.928671h301.213987v240.928671z m-150.606993-60.194205c18.07041 0 30.127473-12.087434 30.127473-30.097102v-60.254946c0-18.13115-12.057063-30.127473-30.127473-30.127472s-30.127473 11.996322-30.127473 30.127472v60.254946c0 18.009669 12.057063 30.097102 30.127473 30.097102z" p-id="1855"></path><path d="M880.317466 10.022244v189.541893h-189.481152v63.170507h252.68203V10.022244h-63.200878z" p-id="1856"></path></svg>